<svg xmlns="http://www.w3.org/2000/svg" xmlns:xlink="http://www.w3.org/1999/xlink" width="1240.143" height="447.546" viewBox="0 0 1240.143 447.546">
  <defs>
    <clipPath id="clip-path">
      <rect id="Rectangle_48" data-name="Rectangle 48" width="1240.143" height="447.546" fill="none"/>
    </clipPath>
  </defs>
  <g id="Group_1" data-name="Group 1" transform="translate(0 0)">
    <path id="Path_49" data-name="Path 49" d="M3.726,22.335H1235.9V190.143H3.726ZM.035,193.888H1239.654V18.648H.035Z" transform="translate(0.475 253.651)"/>
    <path id="Path_50" data-name="Path 50" d="M30.5,28.068v-5.1H3.516V72.351H30.5V67.236H8.776V50.2H27.705V45.1H8.776V28.068Z" transform="translate(47.72 312.272)"/>
    <path id="Path_51" data-name="Path 51" d="M45.089,22.967V63.535L14.561,22.967H9.621V72.351h5.26V31.769L45.336,72.351h4.94V22.967Z" transform="translate(130.576 312.27)"/>
    <path id="Path_52" data-name="Path 52" d="M48.972,22.967h-32.6v5.275H30.043V72.351H35.3V28.242H48.972Z" transform="translate(222.544 312.27)"/>
    <path id="Path_53" data-name="Path 53" d="M49.592,28.068v-5.1H22.605V72.351H49.592V67.236H27.866V50.2H46.794V45.1H27.866V28.068Z" transform="translate(307.215 312.272)"/>
    <g id="Group_13" data-name="Group 13" transform="translate(0 0)">
      <g id="Group_12" data-name="Group 12" clip-path="url(#clip-path)">
        <path id="Path_54" data-name="Path 54" d="M48.742,49.827A13.144,13.144,0,0,0,60.2,36.813,13.755,13.755,0,0,0,46.437,22.967H28.71V72.412h5.282V50.075H43.3L57.306,72.412h6.026Zm-14.75-4.771V28.249H46.1c4.946,0,8.827,3.458,8.827,8.4,0,5.019-3.793,8.4-8.827,8.4Z" transform="translate(390.167 312.127)"/>
        <path id="Path_55" data-name="Path 55" d="M67.323,22.967H34.685v5.282H48.37V72.412h5.267V28.249H67.323Z" transform="translate(471.366 312.13)"/>
        <path id="Path_56" data-name="Path 56" d="M76.321,72.412H82.1L64.212,22.967H58.361L40.474,72.412h5.778l4.027-11.526h22ZM52.015,55.853l9.308-26.612,9.235,26.612Z" transform="translate(550.039 312.127)"/>
        <rect id="Rectangle_47" data-name="Rectangle 47" width="5.267" height="49.445" transform="translate(689.651 335.087)"/>
        <path id="Path_57" data-name="Path 57" d="M87.491,22.967V63.586L56.925,22.967H51.979V72.412h5.267V31.78L87.739,72.412h4.946V22.967Z" transform="translate(706.393 312.13)"/>
        <path id="Path_58" data-name="Path 58" d="M102.689,22.967l-19.04,43.1L64.7,22.967h-5.6V72.412h5.281V33.355L81.432,72.412h4.362l17.231-38.9v38.9H108.2V22.967Z" transform="translate(803.092 312.13)"/>
        <path id="Path_59" data-name="Path 59" d="M93.837,28.074V22.967H66.816V72.413H93.837V67.292H72.083V50.236H91.035V45.13H72.083V28.074Z" transform="translate(908.023 312.132)"/>
        <path id="Path_60" data-name="Path 60" d="M108.433,22.967V63.586L77.867,22.967H72.921V72.412h5.267V31.78l30.493,40.633h4.946V22.967Z" transform="translate(990.989 312.13)"/>
        <path id="Path_61" data-name="Path 61" d="M112.313,22.967H79.675v5.282H93.36V72.412h5.267V28.249h13.685Z" transform="translate(1082.774 312.13)"/>
        <path id="Path_62" data-name="Path 62" d="M0,220.288,21.272.141H95.856l21.009,220.147H75.094L72.016,184.66H45.36l-2.568,35.629Zm48.687-70.732H68.675L58.943,37.564H56.886Z" transform="translate(0 1.923)"/>
        <path id="Path_63" data-name="Path 63" d="M9.362.14h58.17q26.393,0,37.686,17.041Q116.488,34.229,116.5,67.035t-10.009,49.474q-10,16.632-35.877,16.647H52.665v87.131H9.362ZM55.233,93.428c5.3,0,9.192-.978,11.657-2.947a14.047,14.047,0,0,0,4.873-8.448,82.787,82.787,0,0,0,1.153-15.772q0-13.831-3.078-19.988t-12.3-6.157H52.665V93.428Z" transform="translate(127.229 1.91)"/>
        <path id="Path_64" data-name="Path 64" d="M72.3,224.262q-26.656,0-40.5-16.268T17.97,162.225V57.411q0-28.45,13.831-42.924Q45.654,0,72.3,0T112.79,14.488q13.831,14.466,13.846,42.924V162.225q0,29.742-13.846,45.885T72.3,224.262m0-40.5c3.925,0,6.58-1.707,7.937-5.121s2.057-8.2,2.057-14.356V56.653A29.8,29.8,0,0,0,80.371,45c-1.284-3.006-3.9-4.494-7.82-4.494q-11.008,0-11.015,16.662V164.531c0,6.317.773,11.118,2.305,14.356S68.2,183.76,72.3,183.76" transform="translate(244.211 0.007)"/>
        <path id="Path_65" data-name="Path 65" d="M83.408,224.262q-29.982,0-43.317-14.867T26.77,161.467v-21.52H70.088v27.414q0,16.414,10.5,16.4,5.887,0,8.2-3.458C90.324,178,91.1,174.116,91.1,168.63q0-10.745-2.568-17.8a38.726,38.726,0,0,0-6.536-11.789q-3.961-4.727-14.211-14.736L48.815,105.339Q26.777,83.826,26.77,57.674q0-28.188,12.941-42.924T77.514,0q29.742,0,42.807,15.772T133.393,65.1H88.544l-.263-15.115a9.639,9.639,0,0,0-2.437-6.916A8.907,8.907,0,0,0,79.06,40.5q-5.143,0-7.7,2.816A11.021,11.021,0,0,0,68.8,51.006q0,10.767,12.3,22.308l25.635,24.6a146.947,146.947,0,0,1,14.867,16.53,64.907,64.907,0,0,1,9.483,18.456q3.589,10.636,3.589,25.226,0,32.565-11.92,49.343T83.408,224.262" transform="translate(363.802 0.007)"/>
        <path id="Path_66" data-name="Path 66" d="M61.259,220.288V42.437H35.114V.141H131.48v42.3H105.335V220.288Z" transform="translate(477.195 1.919)"/>
        <path id="Path_67" data-name="Path 67" d="M43,.141h67.653q16.151,0,24.993,7.31t11.92,20.5q3.064,13.218,3.079,33.7c0,12.474-1.634,22.191-4.873,29.224q-4.88,10.5-16.924,14.6,10,2.057,14.488,10.009,4.465,7.922,4.479,21.506l-.511,83.279H104.249v-86.1q0-9.235-3.589-11.774-3.589-2.582-13.073-2.582V220.274H43ZM98.355,81.626q9.214,0,9.221-19.974A81.666,81.666,0,0,0,106.8,48.58c-.511-2.9-1.444-4.917-2.816-6.026a9.123,9.123,0,0,0-5.894-1.663H87.85V81.626Z" transform="translate(584.38 1.923)"/>
        <path id="Path_68" data-name="Path 68" d="M106.029,224.262q-26.656,0-40.5-16.268T51.7,162.225V57.411q0-28.45,13.831-42.924Q79.38,0,106.029,0t40.487,14.488q13.831,14.466,13.846,42.924V162.225q0,29.742-13.846,45.885t-40.487,16.151m0-40.5c3.925,0,6.58-1.707,7.937-5.121s2.057-8.2,2.057-14.356V56.653A29.8,29.8,0,0,0,114.1,45c-1.284-3.006-3.9-4.494-7.82-4.494q-11.008,0-11.015,16.662V164.531c0,6.317.773,11.118,2.305,14.356s4.362,4.873,8.462,4.873" transform="translate(702.545 0.007)"/>
        <path id="Path_69" data-name="Path 69" d="M60.795.14h58.17q26.393,0,37.686,17.041,11.271,17.048,11.278,49.854T157.92,116.509q-10,16.632-35.877,16.647H104.1v87.131h-43.3Zm45.871,93.288c5.3,0,9.192-.978,11.657-2.947a14.047,14.047,0,0,0,4.873-8.448,82.787,82.787,0,0,0,1.153-15.772q0-13.831-3.078-19.988t-12.3-6.157H104.1V93.428Z" transform="translate(826.199 1.91)"/>
        <path id="Path_70" data-name="Path 70" d="M69.526,220.288V.141h43.828V78.824H134.1V.141h43.828V220.288H134.1V120.347H113.354v99.941Z" transform="translate(944.85 1.919)"/>
        <path id="Path_71" data-name="Path 71" d="M78.73,220.288V.141H166.9V42.685H123.58V85.492H165.1V127H123.58v50.481h46.133v42.807Z" transform="translate(1069.938 1.919)"/>
      </g>
    </g>
  </g>
</svg>
